<?xml version="1.0" encoding="UTF-8"?>
<svg xmlns="http://www.w3.org/2000/svg" width="1600" height="1000" viewBox="0 0 1600 1000" role="img" aria-labelledby="title desc">
  <title id="title">Mockup - Gestiones (Lista)</title>
  <desc id="desc">Wireframe de listado de gestiones con filtros, tabla y acciones.</desc>
  <defs>
    <style>
      .frame { fill:#fff; stroke:#1f2937; stroke-width:2; }
      .header { fill:#f8fafc; stroke:#cbd5e1; }
      .sidebar { fill:#f1f5f9; stroke:#cbd5e1; }
      .card { fill:#ffffff; stroke:#e2e8f0; }
      .pill { fill:#eef2f7; stroke:#cbd5e1; }
      .title { font:700 20px 'Segoe UI', Arial, sans-serif; fill:#1f2937; }
      .text { font:400 14px 'Segoe UI', Arial, sans-serif; fill:#334155; }
      .th { font:600 14px 'Segoe UI', Arial, sans-serif; fill:#0f172a; }
    </style>
  </defs>

  <rect x="20" y="20" width="1560" height="960" class="frame" rx="16" ry="16"/>

  <!-- Header + sidebar derecho -->
  <rect x="20" y="20" width="1560" height="80" class="header"/>
  <text x="60" y="70" class="title">Gestiones</text>
  <rect x="1440" y="40" width="120" height="40" class="pill" rx="20" ry="20"/>
  <text x="1500" y="66" class="text" text-anchor="middle">Usuario</text>
  <rect x="1400" y="100" width="180" height="880" class="sidebar"/>

  <!-- Filtros -->
  <rect x="40" y="120" width="1340" height="120" class="card" rx="12" ry="12"/>
  <text x="60" y="150" class="text">Filtros</text>
  <rect x="60" y="170" width="220" height="36" class="pill" rx="8" ry="8"/>
  <rect x="290" y="170" width="220" height="36" class="pill" rx="8" ry="8"/>
  <rect x="520" y="170" width="220" height="36" class="pill" rx="8" ry="8"/>
  <rect x="750" y="170" width="220" height="36" class="pill" rx="8" ry="8"/>
  <rect x="980" y="170" width="140" height="36" class="pill" rx="8" ry="8"/>
  <rect x="1130" y="170" width="250" height="36" class="pill" rx="8" ry="8"/>

  <!-- Tabla -->
  <rect x="40" y="260" width="1340" height="660" class="card" rx="12" ry="12"/>
  <text x="60" y="290" class="text">Listado</text>
  <!-- Cabecera -->
  <rect x="60" y="310" width="1300" height="40" class="pill" rx="8" ry="8"/>
  <text x="80" y="336" class="th">Código</text>
  <text x="200" y="336" class="th">Cliente</text>
  <text x="400" y="336" class="th">Técnico</text>
  <text x="600" y="336" class="th">Estado</text>
  <text x="760" y="336" class="th">Fecha Inicio</text>
  <text x="940" y="336" class="th">Fecha Fin</text>
  <text x="1110" y="336" class="th">Acciones</text>
  <!-- Filas -->
  <rect x="60" y="360" width="1300" height="40" class="pill" rx="6" ry="6"/>
  <rect x="60" y="406" width="1300" height="40" class="pill" rx="6" ry="6"/>
  <rect x="60" y="452" width="1300" height="40" class="pill" rx="6" ry="6"/>
  <rect x="60" y="498" width="1300" height="40" class="pill" rx="6" ry="6"/>
  <rect x="60" y="544" width="1300" height="40" class="pill" rx="6" ry="6"/>
  <rect x="60" y="590" width="1300" height="40" class="pill" rx="6" ry="6"/>
  <rect x="60" y="636" width="1300" height="40" class="pill" rx="6" ry="6"/>
  <rect x="60" y="682" width="1300" height="40" class="pill" rx="6" ry="6"/>
  <rect x="60" y="728" width="1300" height="40" class="pill" rx="6" ry="6"/>

  <!-- Paginación -->
  <rect x="880" y="930" width="500" height="40" class="pill" rx="20" ry="20"/>
</svg>